<svg width="971" height="168" viewBox="0 0 971 168" fill="none" xmlns="http://www.w3.org/2000/svg">
<path fill-rule="evenodd" clip-rule="evenodd" d="M909 32.0054L687.118 0L599.479 32.0054L554.237 16.0027L350.975 0L251.569 32.0054L191.091 16.0027L158.69 26.6876L28.8505 0L0 11.2843V102H909V32.0054Z" fill="#211A29"/>
<path fill-rule="evenodd" clip-rule="evenodd" d="M881 1L939.871 45L971 13.6202L881 1Z" fill="#1A1823"/>
<path fill-rule="evenodd" clip-rule="evenodd" d="M718 27L749.903 45L800 41.4817L718 27Z" fill="#1A1823"/>
<path fill-rule="evenodd" clip-rule="evenodd" d="M558 0L657.081 53L708 36.388L558 0Z" fill="#1A1823"/>
<path fill-rule="evenodd" clip-rule="evenodd" d="M222 0L309.807 53L341 34.8176L222 0Z" fill="#1A1823"/>
<path fill-rule="evenodd" clip-rule="evenodd" d="M0 52.7148L221.882 0L309.521 52.7148L354.763 26.3574L558.025 0L657.431 52.7148L717.909 26.3574L750.31 43.9561L880.15 0L909 18.5859V168H0V52.7148Z" fill="#2F2439"/>
</svg>
